<?xml version="1.0" encoding="UTF-8" standalone="no"?>
<!-- Created with Inkscape (http://www.inkscape.org/) -->

<svg
   width="210mm"
   height="297mm"
   viewBox="0 0 210 297"
   version="1.1"
   id="svg1"
   inkscape:version="1.4.2 (f4327f4, 2025-05-13)"
   sodipodi:docname="Logo SUNAILS2.0.svg"
   xmlns:inkscape="http://www.inkscape.org/namespaces/inkscape"
   xmlns:sodipodi="http://sodipodi.sourceforge.net/DTD/sodipodi-0.dtd"
   xmlns="http://www.w3.org/2000/svg"
   xmlns:svg="http://www.w3.org/2000/svg">
  <sodipodi:namedview
     id="namedview1"
     pagecolor="#ffffff"
     bordercolor="#000000"
     borderopacity="0.25"
     inkscape:showpageshadow="2"
     inkscape:pageopacity="0.0"
     inkscape:pagecheckerboard="0"
     inkscape:deskcolor="#d1d1d1"
     inkscape:document-units="mm"
     inkscape:zoom="0.72604517"
     inkscape:cx="342.26521"
     inkscape:cy="558.5052"
     inkscape:window-width="1920"
     inkscape:window-height="1017"
     inkscape:window-x="-8"
     inkscape:window-y="-8"
     inkscape:window-maximized="1"
     inkscape:current-layer="svg1" />
  <defs
     id="defs1" />
  <g
     id="g11"
     transform="translate(6.1950921,-1.2808239)">
    <g
       id="g6"
       transform="matrix(1.9639615,0.77840301,-0.82893569,1.9178132,147.29942,-357.84928)">
      <path
         id="path5"
         style="fill:none;fill-opacity:1;fill-rule:evenodd;stroke:#ffd661;stroke-width:5.365;stroke-linecap:round;stroke-linejoin:round;stroke-opacity:0.996078"
         d="m 71.790184,232.86258 c 1.078005,0.76739 -0.502582,1.83173 -1.27546,1.79172 -2.094449,-0.10845 -2.90415,-2.65672 -2.307972,-4.34264 1.059586,-2.99639 6.124293,-3.13702 7.409811,-2.82423 4.36229,1.06141 4.993882,4.70396 3.340484,10.47699 -1.812792,6.32957 -8.640425,6.5061 -13.544161,3.85674 -7.161965,-3.86942 -8.885186,-11.53033 -4.372997,-16.61134 5.471217,-6.16094 13.889141,-9.698 19.678512,-4.88925 3.178721,2.6403 11.744596,13.02555 5.405509,22.74569 -5.519919,8.46406 -10.963047,7.95031 -16.543787,7.16195"
         sodipodi:nodetypes="cssssssssc" />
      <path
         id="path6"
         style="fill:none;stroke:#ffd661;stroke-width:3.02175;stroke-linecap:round;stroke-linejoin:round;stroke-dasharray:none;stroke-opacity:0.996078;paint-order:stroke fill markers"
         inkscape:transform-center-x="0.021723685"
         inkscape:transform-center-y="0.16754174"
         transform="matrix(1.1497671,0.10521394,-0.06689821,0.76051795,11.575766,55.380714)"
         d="m 60.236093,244.83743 c 5.923663,8.3655 4.425636,1.96102 4.752635,1.52416 l -0.669478,1.47843 c -0.847414,-0.59898 4.38348,-2.20199 -4.083157,-3.00259 z"
         sodipodi:nodetypes="cccc" />
    </g>
    <g
       id="g3"
       transform="translate(17.007003,17.007003)">
      <path
         id="rect3"
         style="fill:#ffd662;fill-opacity:0.995181;stroke-width:32.0542;stroke-linecap:round;stroke-linejoin:round;stroke-opacity:0.963855;paint-order:markers stroke fill"
         d="m 67.368105,30.96017 -0.0099,-0.181943 C 88.78524,54.315446 64.222897,61.26844 83.858271,87.820914 L 70.480598,88.453898 C 56.347295,80.675675 76.036126,46.052768 67.368104,30.960174 Z"
         sodipodi:nodetypes="ccccc" />
      <path
         id="rect3-8"
         style="fill:#ffd662;fill-opacity:0.995181;stroke-width:24.5417;stroke-linecap:round;stroke-linejoin:round;stroke-opacity:0.963855;paint-order:markers stroke fill"
         d="m 32.439844,65.923882 -0.07068,-0.09425 c -2.055836,27.667946 14.504568,12.11903 14.706471,39.847768 l 7.699371,-9.971228 C 59.373665,81.147277 33.939971,79.770797 32.439846,65.923884 Z"
         sodipodi:nodetypes="ccccc" />
      <path
         id="rect3-5"
         style="fill:#ffd662;fill-opacity:0.995181;stroke-width:22.6604;stroke-linecap:round;stroke-linejoin:round;stroke-opacity:0.963855;paint-order:markers stroke fill"
         d="m 114.44603,56.276535 0.0613,-0.1099 c 4.19485,27.466597 -15.487747,36.202579 -10.67695,39.035208 L 95.07483,91.00464 c -6.11284,-9.380377 19.28651,-22.930942 19.3712,-34.728102 z"
         sodipodi:nodetypes="cccccc" />
      <path
         id="rect3-1"
         style="fill:#ffd662;fill-opacity:0.995181;stroke-width:30.0235;stroke-linecap:round;stroke-linejoin:round;stroke-opacity:0.963855;paint-order:markers stroke fill"
         d="m 167.67176,78.863866 0.15311,-0.07991 c -11.51136,27.017704 -27.62871,9.430997 -42.48223,36.155154 l -6.05378,-10.82243 c 0.90091,-14.765378 38.91387,-12.125845 48.38289,-25.252812 z"
         sodipodi:nodetypes="ccccc" />
      <path
         id="rect3-7"
         style="fill:#ffd662;fill-opacity:0.995181;stroke-width:32.0542;stroke-linecap:round;stroke-linejoin:round;stroke-opacity:0.963855;paint-order:markers stroke fill"
         d="m -16.192843,110.82744 -0.17579,-0.048 c 29.08831,-12.922329 27.95054,12.57979 59.33627,2.30764 l -3.61303,12.89608 C 27.520517,136.94697 0.86179725,107.3546 -16.192843,110.82741 Z"
         sodipodi:nodetypes="ccccc" />
      <path
         id="rect3-2"
         style="fill:#ffd662;fill-opacity:0.995181;stroke-width:23.0869;stroke-linecap:round;stroke-linejoin:round;stroke-opacity:0.963855;paint-order:markers stroke fill"
         d="m 8.0054306,162.65122 -0.1113546,0.0549 c 10.080925,-22.02187 32.498907,-9.61986 31.953103,-27.09693 l 3.345975,9.72088 c -1.735675,12.47684 -27.682506,6.97226 -35.1877234,17.32118 z"
         sodipodi:nodetypes="ccccc" />
      <path
         id="rect3-16"
         style="fill:#ffd662;fill-opacity:0.995181;stroke-width:32.0542;stroke-linecap:round;stroke-linejoin:round;stroke-opacity:0.963855;paint-order:markers stroke fill"
         d="m 29.490108,215.5764 3.763204,-0.36439 c -2.864465,-31.70034 7.512654,-13.13256 17.431348,-54.91546 l 11.560432,8.60498 c 11.464241,10.34891 -29.602731,27.81895 -29.018591,45.38645 z"
         sodipodi:nodetypes="cccccc" />
      <path
         id="rect3-6"
         style="fill:#ffd662;fill-opacity:0.995181;stroke-width:23.9654;stroke-linecap:round;stroke-linejoin:round;stroke-opacity:0.963855;paint-order:markers stroke fill"
         d="m 166.73922,124.80012 0.13885,-0.006 c -20.65023,17.23006 -38.28721,9.39757 -43.90222,11.71413 l -0.10669,-9.82065 c 6.31984,-10.31713 32.13353,4.36888 43.87008,-1.8875 z"
         sodipodi:nodetypes="cccccc" />
    </g>
  </g>
  <g
     inkscape:label="Slānis 1"
     inkscape:groupmode="layer"
     id="layer1">
    <path
       id="rect2"
       style="fill:#040404;fill-opacity:0.923077;stroke:#3f3f3f;stroke-width:5.21841;stroke-linecap:round;stroke-linejoin:round;stroke-opacity:1;paint-order:markers stroke fill"
       d="m 112.77573,89.999651 c 9.86159,-7.46036 17.64523,-4.53094 25.10857,0 -0.34884,24.715279 -0.10948,38.254689 0,54.261939 h -25.10857 z"
       sodipodi:nodetypes="ccccc" />
    <path
       id="rect1"
       style="display:inline;fill:#ffffff;fill-opacity:1;stroke:#000000;stroke-width:4.48393;stroke-linecap:round;stroke-linejoin:round;stroke-dasharray:none;stroke-opacity:1;paint-order:markers stroke fill"
       d="m 91.762756,145.49045 c 32.099564,-4.90271 44.467604,-2.19122 67.724964,0.46955 1.42409,39.08353 -2.77068,55.56031 -9.04138,64.32794 -15.85797,1.94979 -33.31625,2.31211 -51.348133,-0.31303 -6.276795,-13.99512 -7.859115,-37.17877 -7.335451,-64.48446 z"
       sodipodi:nodetypes="ccccc" />
    <rect
       style="fill:#ffffff;fill-opacity:0.996078;stroke:#ffffff;stroke-width:1;stroke-linecap:round;stroke-linejoin:round;stroke-dasharray:none;stroke-opacity:1;paint-order:markers fill stroke"
       id="rect11"
       width="120.59511"
       height="20.872231"
       x="63.150368"
       y="163.23453" />
    <text
       xml:space="preserve"
       style="font-size:22.9518px;font-family:Sans;-inkscape-font-specification:'Sans, Normal';text-align:center;writing-mode:lr-tb;direction:ltr;text-anchor:middle;fill:#040404;fill-opacity:0.923077;stroke:none;stroke-width:9.208;stroke-linecap:round;stroke-linejoin:round;stroke-dasharray:none;stroke-opacity:1;paint-order:markers stroke fill"
       x="188.57556"
       y="178.70847"
       id="text2"
       transform="scale(0.97877277,1.0216876)"><tspan
         sodipodi:role="line"
         id="tspan2"
         style="font-style:normal;font-variant:normal;font-weight:normal;font-stretch:normal;font-family:Elephant;-inkscape-font-specification:Elephant;text-align:end;writing-mode:lr-tb;text-anchor:end;stroke:none;stroke-width:9.208;stroke-dasharray:none;stroke-opacity:1"
         x="188.57556"
         y="178.70847">SUNAILS</tspan></text>
    <path
       style="fill:none;fill-opacity:1;stroke:#000000;stroke-width:1;stroke-linecap:round;stroke-linejoin:round;stroke-dasharray:none;stroke-opacity:1;paint-order:markers fill stroke"
       d="m 63.147005,185.27727 119.313415,0.23577"
       id="path9" />
    <path
       style="fill:none;fill-opacity:1;stroke:#000000;stroke-width:1;stroke-linecap:round;stroke-linejoin:round;stroke-dasharray:none;stroke-opacity:1;paint-order:markers fill stroke"
       d="m 63.344334,162.67101 119.313416,0.23577"
       id="path9-1" />
  </g>
  <path
     style="fill:#999999;fill-opacity:0.996078;stroke:#ffffff;stroke-width:5.20564;stroke-linecap:round;stroke-linejoin:round;paint-order:markers fill stroke"
     d="m 421.46138,798.20886 c -32.60215,-2.92396 -43.80991,-4.6053 -46.12392,-6.91932 -5.22703,-5.22703 -18.08278,-54.10925 -21.28527,-80.93429 l -0.86326,-7.23095 h 121.94068 121.94068 v 3.61459 c 0,6.36349 -6.65997,36.76314 -10.88983,49.70703 -4.29137,13.13211 -11.78899,29.15943 -16.17321,34.57272 -2.26551,2.79729 -4.77933,3.44045 -20.47128,5.23758 -20.61316,2.36074 -108.57187,3.70177 -128.07459,1.95264 z"
     id="path1"
     transform="scale(0.26458333)" />
  <path
     style="fill:#999999;fill-opacity:0.996078;stroke:#ffffff;stroke-width:5.20564;stroke-linecap:round;stroke-linejoin:round;paint-order:markers fill stroke"
     d="m 450.72953,612.56533 -102.95502,-0.362 v -30.80501 -30.80501 l 5.20737,-0.83269 c 16.12756,-2.5789 50.76014,-6.457 70.5079,-7.89536 26.92336,-1.961 80.51002,-0.9558 106.78026,2.00303 9.84787,1.10918 30.14619,3.42673 45.10738,5.15013 l 27.20217,3.13344 v 30.72317 30.72316 l -24.44752,-0.33543 c -13.44613,-0.18449 -70.77727,-0.49833 -127.40254,-0.69743 z"
     id="path2"
     transform="scale(0.26458333)" />
</svg>
